<svg width="1420" height="103" viewBox="0 0 1420 103" fill="none" xmlns="http://www.w3.org/2000/svg">
<path d="M159 43C155.8 43 125.167 47.6667 110.5 49.5H147H165L241.5 32L296.5 22.5L249 23C220.333 29.6667 162.2 43 159 43Z" fill="#D9D9D9"/>
<path d="M419.5 41.5L348 51.5H383.5L410 48.5L490 35.5L556 20L503 20.5L419.5 41.5Z" fill="#D9D9D9"/>
<path d="M924.5 17L917 17.5L930 34.5L947.5 56L955.5 54.5L942 40L924.5 17Z" fill="#D9D9D9"/>
<path d="M159 43C155.8 43 125.167 47.6667 110.5 49.5H147H165L241.5 32L296.5 22.5L249 23C220.333 29.6667 162.2 43 159 43Z" stroke="black" stroke-width="3"/>
<path d="M419.5 41.5L348 51.5H383.5L410 48.5L490 35.5L556 20L503 20.5L419.5 41.5Z" stroke="black" stroke-width="3"/>
<path d="M924.5 17L917 17.5L930 34.5L947.5 56L955.5 54.5L942 40L924.5 17Z" stroke="black" stroke-width="3"/>
<path d="M1411 50.5L1367 44C1367 44 1359 55 1356.5 56C1354 57 1342.5 52.5 1341 56C1339.5 59.5 1351 68.5 1349.5 72.5C1348 76.5 1323 82.5 1321.5 84C1320 85.5 1321.5 93.5 1318.5 95.5C1315.5 97.5 1305.35 94.455 1303 95.5C1300.65 96.545 1299 98 1301 99.5C1303 101 1347.5 100 1347.5 100L1409 70.5L1417.5 58.5L1411 50.5Z" fill="white" stroke="black" stroke-width="3"/>
</svg>
