<svg width="1422" height="77" viewBox="0 0 1422 77" fill="none" xmlns="http://www.w3.org/2000/svg">
<path d="M1404 72.5C1404 72.5 1420 68 1420.5 44C1421 20 1401 12.5 1401 12.5C1401 12.5 1411 23 1412 42C1413 61 1404 72.5 1404 72.5Z"  stroke="black" stroke-width="3"/>
<path d="M454 29.5C459.5 29.5 454.5 28.5 460 28L464.5 27.9308L457 33L474 36H502L507 29.5L502 27.3538L516 27.1385L509.5 33L516 37L575 28.8817C577.189 28.9562 578.63 29 579 29C580.272 29 581.285 28.4824 582.5 27.8421L635.5 41L658.5 44.5C665.833 43.6667 680.5 41.8 680.5 41C680.5 40.2 682.833 37 684 35.5L704.5 38L706 49L724 51L730.5 42L759.5 43L769 35.5L785.5 38L789 26.39C790.879 26.3613 792.714 26.3336 794.5 26.307L802 35.5C802.167 37.3333 802.6 41 803 41C803.5 41 813 45 814 44.5C814.8 44.1 825.667 44.6667 831 45L836.5 52.5L817 58L790 53.5L782 60L767.5 58L754 62L750 58L763.5 54.5L746.5 47.5L720.5 59L691 51L689 58L695.5 62L682.5 60L668 51L616.5 49L601.5 52L612.546 63.5C609.577 63.3053 607.465 63.2676 607 63.5C605 64.5 607 67 605 67C604.543 67 603.668 66.9478 602.5 66.8612L599 61L580 58L553.5 64.865C549.792 64.8186 546.066 64.7754 542.5 64.7361L544.5 59L500.5 56.5L490 60L475.5 58L459 47.5L437 49L441.5 55.5L456.5 57.5L452 64.6206C450.623 64.5892 449.748 64.5495 449.5 64.5C447 64 447.5 62 445 61.5C444.78 61.4561 441.253 61.3891 435 61.3033L429.5 47.5L432.5 46L428 37L439.5 29.6334C448.283 29.5477 453.433 29.5 454 29.5Z" />
<path d="M848 27.5C851.5 27.5 849 23.5 851.5 22.5C851.5 22.5 855 29.5 858.5 30C862 30.5 871 29.5 872 30C873 30.5 866.5 33 867.5 34.5C868.5 36 877 37 883 36.5C889 36 898 31.5 907.5 31.5C917 31.5 931.5 35 937 34.5C942.5 34 954.5 22.5 968.5 22.5C982.5 22.5 989 33.5 991.5 36.5C994 39.5 996.5 43.5 997 48C997.5 52.5 997.5 55.5 997.5 57.5C997.5 59.5 991.5 61 989.5 62C987.5 63 991.5 65 989.5 66C987.5 67 980 68.5 976 68.5C972 68.5 953.5 68 951 67C948.5 66 949 60.5 947 57.5C945 54.5 932.5 46.5 926 46.5C919.5 46.5 903.5 54.5 891.5 54.5C879.5 54.5 873 47.5 870 48C867 48.5 868 52 865.5 52.5C863 53 851.5 37.5 846.5 36.5C841.5 35.5 827.5 36 826.5 33C825.5 30 840.5 27.0695 840.5 27.0695C843.641 27.3175 846.505 27.5 848 27.5Z" />
<path d="M396 51C404.5 53 416.5 61.0797 416.5 61.0797C422.304 61.1442 427.342 61.2036 431.5 61.2569C431.5 61.2569 412.5 50 406 47.5C399.5 45 381.5 43.5 373.5 40C365.5 36.5 366 30.3695 366 30.3695L354 30.4911C354 30.4911 352.5 39.5 362 43.5C371.5 47.5 387.5 49 396 51Z" />
<path d="M244 40C236 36 230 31.7545 230 31.7545L222 31.8363C222 31.8363 226.5 41 233 45C239.5 49 250.5 50.5 257 52.5C263.5 54.5 268 59.6704 268 59.6704C274.389 59.7268 280.73 59.783 287 59.8389C287 59.8389 279.5 51 271.5 47.5C263.5 44 252 44 244 40Z" />
<path d="M94 46C88.5 42.5 77 33.322 77 33.322L89 33.1988C92.3333 35.6325 94 38 99.5 41C105 44 106 42 114.5 44C123 46 136.5 58.5397 136.5 58.5397L121.5 58.4137C121.5 58.4137 114.5 52.5 110 50.5C105.5 48.5 99.5 49.5 94 46Z" />
<path d="M454 29.5C459.5 29.5 454.5 28.5 460 28L464.5 27.9308L457 33L474 36H502L507 29.5L502 27.3538L516 27.1385L509.5 33L516 37L575 28.8817C577.189 28.9562 578.63 29 579 29C580.272 29 581.285 28.4824 582.5 27.8421L635.5 41L658.5 44.5C665.833 43.6667 680.5 41.8 680.5 41C680.5 40.2 682.833 37 684 35.5L704.5 38L706 49L724 51L730.5 42L759.5 43L769 35.5L785.5 38L789 26.39C790.879 26.3613 792.714 26.3336 794.5 26.307L802 35.5C802.167 37.3333 802.6 41 803 41C803.5 41 813 45 814 44.5C814.8 44.1 825.667 44.6667 831 45L836.5 52.5L817 58L790 53.5L782 60L767.5 58L754 62L750 58L763.5 54.5L746.5 47.5L720.5 59L691 51L689 58L695.5 62L682.5 60L668 51L616.5 49L601.5 52L612.546 63.5C609.577 63.3053 607.465 63.2676 607 63.5C605 64.5 607 67 605 67C604.543 67 603.668 66.9478 602.5 66.8612L599 61L580 58L553.5 64.865C549.792 64.8186 546.066 64.7754 542.5 64.7361L544.5 59L500.5 56.5L490 60L475.5 58L459 47.5L437 49L441.5 55.5L456.5 57.5L452 64.6206C450.623 64.5892 449.748 64.5495 449.5 64.5C447 64 447.5 62 445 61.5C444.78 61.4561 441.253 61.3891 435 61.3033L429.5 47.5L432.5 46L428 37L439.5 29.6334C448.283 29.5477 453.433 29.5 454 29.5Z" stroke="black" stroke-width="3"/>
<path d="M848 27.5C851.5 27.5 849 23.5 851.5 22.5C851.5 22.5 855 29.5 858.5 30C862 30.5 871 29.5 872 30C873 30.5 866.5 33 867.5 34.5C868.5 36 877 37 883 36.5C889 36 898 31.5 907.5 31.5C917 31.5 931.5 35 937 34.5C942.5 34 954.5 22.5 968.5 22.5C982.5 22.5 989 33.5 991.5 36.5C994 39.5 996.5 43.5 997 48C997.5 52.5 997.5 55.5 997.5 57.5C997.5 59.5 991.5 61 989.5 62C987.5 63 991.5 65 989.5 66C987.5 67 980 68.5 976 68.5C972 68.5 953.5 68 951 67C948.5 66 949 60.5 947 57.5C945 54.5 932.5 46.5 926 46.5C919.5 46.5 903.5 54.5 891.5 54.5C879.5 54.5 873 47.5 870 48C867 48.5 868 52 865.5 52.5C863 53 851.5 37.5 846.5 36.5C841.5 35.5 827.5 36 826.5 33C825.5 30 840.5 27.0695 840.5 27.0695C843.641 27.3175 846.505 27.5 848 27.5Z" stroke="black" stroke-width="3"/>
<path d="M396 51C404.5 53 416.5 61.0797 416.5 61.0797C422.304 61.1442 427.342 61.2036 431.5 61.2569C431.5 61.2569 412.5 50 406 47.5C399.5 45 381.5 43.5 373.5 40C365.5 36.5 366 30.3695 366 30.3695L354 30.4911C354 30.4911 352.5 39.5 362 43.5C371.5 47.5 387.5 49 396 51Z" stroke="black" stroke-width="3"/>
<path d="M244 40C236 36 230 31.7545 230 31.7545L222 31.8363C222 31.8363 226.5 41 233 45C239.5 49 250.5 50.5 257 52.5C263.5 54.5 268 59.6704 268 59.6704C274.389 59.7268 280.73 59.783 287 59.8389C287 59.8389 279.5 51 271.5 47.5C263.5 44 252 44 244 40Z" stroke="black" stroke-width="3"/>
<path d="M94 46C88.5 42.5 77 33.322 77 33.322L89 33.1988C92.3333 35.6325 94 38 99.5 41C105 44 106 42 114.5 44C123 46 136.5 58.5397 136.5 58.5397L121.5 58.4137C121.5 58.4137 114.5 52.5 110 50.5C105.5 48.5 99.5 49.5 94 46Z" stroke="black" stroke-width="3"/>
</svg>
