<svg width="1421" height="77" viewBox="0 0 1421 77" fill="none" xmlns="http://www.w3.org/2000/svg">
<path d="M474 36L457 33L464.5 27.9308L502 27.3539L507 29.5L502 36H474Z" fill="#38251F"/>
<path d="M612.546 41L601.5 47.5L585.5 43.5H559.5L552.5 37L583 33.5L612.546 41Z" fill="#38251F"/>
<path d="M553.5 46L587 52L555.5 58L527 51L553.5 46Z" fill="#38251F"/>
<path d="M523 49L519.5 52H487.5L471 46L499.5 44.5L523 49Z" fill="#38251F"/>
<path d="M460 37H444L446 43.5L466 44.5L468.5 40L460 37Z" fill="#38251F"/>
<path d="M474 36L457 33L464.5 27.9308L502 27.3539L507 29.5L502 36H474Z" stroke="black" stroke-width="3"/>
<path d="M612.546 41L601.5 47.5L585.5 43.5H559.5L552.5 37L583 33.5L612.546 41Z" stroke="black" stroke-width="3"/>
<path d="M553.5 46L587 52L555.5 58L527 51L553.5 46Z" stroke="black" stroke-width="3"/>
<path d="M523 49L519.5 52H487.5L471 46L499.5 44.5L523 49Z" stroke="black" stroke-width="3"/>
<path d="M460 37H444L446 43.5L466 44.5L468.5 40L460 37Z" stroke="black" stroke-width="3"/>
</svg>
