<svg width="1423" height="81" viewBox="0 0 1423 81" fill="none" xmlns="http://www.w3.org/2000/svg">
<path d="M456 31.5C461.5 31.5 456.5 30.5 462 30L466.5 29.9308L504 29.3538L518 29.1385L527 29C527 29 564.392 30.4521 577 30.8817C579.188 30.9562 580.63 31 581 31C582.272 31 583.285 30.4824 584.5 29.8421L584.592 29.7935C585.745 29.1858 587.086 28.4784 589 28C593 27 632.5 28 635.5 28C638.5 28 640 31 642 31C643.421 31 735.921 29.2339 791 28.39C792.879 28.3613 794.714 28.3336 796.5 28.307C816.071 28.0164 829.806 27.8673 831 28C833.578 28.2864 838.288 28.7369 842.5 29.0695C845.641 29.3175 848.505 29.5 850 29.5C853.5 29.5 851 25.5 853.5 24.5C856 23.5 912.5 18.5 915 12C917.5 5.5 925 16 927 16C929 16 949 7.5 951 6C953 4.5 954 8.5 955.5 8.5C957 8.5 965.5 2 969 2C972.5 2 978.5 6.5 983 8.5C987.5 10.5 993.5 10 996.5 11C999.5 12 995.5 14.5 998.5 16C1000.96 17.231 1029.02 17.4518 1039 17.4913C1041.18 17.5 1042.5 17.5 1042.5 17.5L1044.5 17.485L1054.5 17.41L1109 17.0015L1142 16.7541L1208 16.2594L1236.5 16.0457L1273 15.7721C1273 15.7721 1376.5 15 1378 15C1379.5 15 1383 20 1383 20L1388.5 14H1403.5C1417.5 30.5 1417.5 62 1403.5 77H1388.5L1383 71C1383 71 1380 75 1378.5 75C1377 75 1317.5 74.3927 1317.5 74.3927L1281 74.0138L1208 73.2561L1178.5 72.9498L1144 72.5917L1089.5 72.026L1087 72C1087 72 1085.98 72.9413 1084.5 74.1093C1082.24 75.8902 1078.92 78.198 1076.5 78.5C1072.5 79 1058 75 1054.5 75C1051 75 1024.5 77 1021 75C1017.5 73 1019.5 68.5 1016.5 69C1013.5 69.5 974 77 969 77C964 77 943.5 72.5 943.5 72.5C943.5 72.5 883.5 70.5 881 71C878.5 71.5 874.5 77 870.5 77C866.5 77 846.5 71 842.5 70C838.5 69 753 69 751 69C749 69 746 67.5 744 67.5C742 67.5 643.5 68.5 643.5 68.5C643.5 68.5 624.351 66.1432 614.546 65.5C611.577 65.3053 609.465 65.2676 609 65.5C607 66.5 609 69 607 69C606.543 69 605.668 68.9478 604.5 68.8612C600.559 68.569 593.286 67.8857 587.5 67.5C584.09 67.2727 569.93 67.0453 555.5 66.865C551.792 66.8186 548.066 66.7754 544.5 66.7361C531.424 66.5918 520.5 66.5 520.5 66.5C520.5 66.5 466.522 66.9059 454 66.6206C452.623 66.5892 451.748 66.5495 451.5 66.5C449 66 449.5 64 447 63.5C446.742 63.4485 441.928 63.3651 433.5 63.2569C429.342 63.2036 424.304 63.1442 418.5 63.0797C389.646 62.7588 341.849 62.3103 289 61.8389C282.73 61.783 276.389 61.7268 270 61.6704C225.907 61.2812 179.532 60.8851 138.5 60.5397L123.5 60.4137C60.2154 59.883 12.9999 59.5 12.9999 59.5C4.52303 58.1074 2.12294 55.4735 2 47.5C3.23946 40.3809 5.26074 37.5295 12.9999 36C12.9999 36 39.2627 35.7299 79 35.322L91 35.1988C128.641 34.8125 175.99 34.3271 224 33.8363L232 33.7545C275.43 33.3105 318.989 32.8664 356 32.4911L368 32.3695C418.646 31.8568 454.451 31.5 456 31.5Z" fill="url(#paint0_linear_16_36)"/>
<path d="M1383 71C1383 71 1380 75 1378.5 75C1377 75 1317.5 74.3927 1317.5 74.3927M1383 71L1388.5 77H1403.5C1417.5 62 1417.5 30.5 1403.5 14H1388.5L1383 20M1383 71C1389 61.5 1390 28 1383 20M1383 20C1383 20 1379.5 15 1378 15C1376.5 15 1273 15.7721 1273 15.7721M853.5 24.5C856 23.5 912.5 18.5 915 12C917.5 5.5 925 16 927 16C929 16 949 7.5 951 6C953 4.5 954 8.5 955.5 8.5C957 8.5 965.5 2 969 2C972.5 2 978.5 6.5 983 8.5C987.5 10.5 993.5 10 996.5 11C999.5 12 995.5 14.5 998.5 16C1000.96 17.231 1029.02 17.4518 1039 17.4913M853.5 24.5C851 25.5 853.5 29.5 850 29.5C848.505 29.5 845.641 29.3175 842.5 29.0695M853.5 24.5C853.5 24.5 857 31.5 860.5 32C864 32.5 873 31.5 874 32C875 32.5 868.5 35 869.5 36.5C870.5 38 879 39 885 38.5C891 38 900 33.5 909.5 33.5C919 33.5 933.5 37 939 36.5C944.5 36 956.5 24.5 970.5 24.5C984.5 24.5 987 36.5 993.5 38.5C1000 40.5 1007 42.5 1008.5 41C1010 39.5 1003 35 1004 33.5C1005 32 1024 30.5 1025 29.5C1026 28.5 1026 25 1025 24.5C1024 24 1014 21.5 1018.5 21.5C1023 21.5 1039 17.4913 1039 17.4913M1142 16.7541C1162.84 38.0953 1170.81 50.4264 1178.5 72.9498M1142 16.7541L1109 17.0015M1142 16.7541L1208 16.2594M1178.5 72.9498L1144 72.5917M1178.5 72.9498L1208 73.2561M1109 17.0015C1127.99 37.6376 1136.42 49.6559 1144 72.5917M1109 17.0015L1054.5 17.41M1144 72.5917L1089.5 72.026M1236.5 16.0457C1261.05 37.7894 1271.57 50.3861 1281 74.0138M1236.5 16.0457L1273 15.7721M1236.5 16.0457L1208 16.2594M1281 74.0138L1317.5 74.3927M1281 74.0138L1208 73.2561M1273 15.7721C1294.89 37.1405 1304.66 49.9678 1317.5 74.3927M1054.5 17.41C1072.23 38.5966 1079.31 50.5753 1089.5 72.026M1054.5 17.41L1044.5 17.485M1089.5 72.026L1087 72C1087 72 1085.98 72.9413 1084.5 74.1093M1208 16.2594C1214.57 35.9715 1215.77 47.9867 1208 73.2561M1044.5 17.485L1042.5 17.5C1042.5 17.5 1041.18 17.5 1039 17.4913M1044.5 17.485C1050.75 42.0055 1050.64 53.1144 1045 68.6254M1084.5 74.1093C1082.24 75.8902 1078.92 78.198 1076.5 78.5C1072.5 79 1058 75 1054.5 75C1051 75 1024.5 77 1021 75C1017.5 73 1019.5 68.5 1016.5 69C1013.5 69.5 974 77 969 77C964 77 943.5 72.5 943.5 72.5C943.5 72.5 883.5 70.5 881 71C878.5 71.5 874.5 77 870.5 77C866.5 77 846.5 71 842.5 70C838.5 69 753 69 751 69C749 69 746 67.5 744 67.5C742 67.5 643.5 68.5 643.5 68.5C643.5 68.5 624.351 66.1432 614.546 65.5M1084.5 74.1093C1084.5 74.1093 1075.5 70.5 1073 70.5C1070.5 70.5 1052 71.974 1049.5 71.5C1047 71.026 1045 68.6254 1045 68.6254M842.5 29.0695C838.288 28.7369 833.578 28.2864 831 28C829.806 27.8673 816.071 28.0164 796.5 28.307M842.5 29.0695C842.5 29.0695 827.5 32 828.5 35C829.5 38 843.5 37.5 848.5 38.5C853.5 39.5 865 55 867.5 54.5C870 54 869 50.5 872 50C875 49.5 881.5 56.5 893.5 56.5C905.5 56.5 921.5 48.5 928 48.5C934.5 48.5 947 56.5 949 59.5C951 62.5 950.5 68 953 69C955.5 70 974 70.5 978 70.5C982 70.5 989.5 69 991.5 68C993.5 67 989.5 65 991.5 64C993.5 63 999.5 61.5 999.5 59.5C999.5 57.5 998.5 53.5 999.5 51.5C1000.5 49.5 1005.5 47 1008.5 46C1011.5 45 1021.5 42 1022 44C1022.5 46 1017 48.5 1017.5 51.5C1018 54.5 1025.5 52 1026 53.5C1026.5 55 1018.1 59.1 1016.5 59.5C1014.9 59.9 1033 59.5 1034.5 60.5C1036 61.5 1027.5 65 1028.5 66.5C1029.5 68 1040.5 66 1042.5 66.5C1044.5 67 1045 68.6254 1045 68.6254M796.5 28.307L804 37.5C804.167 39.3333 804.6 43 805 43C805.5 43 815 47 816 46.5C816.8 46.1 827.667 46.6667 833 47L838.5 54.5L819 60L792 55.5L784 62L769.5 60L756 64L752 60L765.5 56.5L748.5 49.5L722.5 61L693 53L691 60L697.5 64L684.5 62L670 53L618.5 51L603.5 54L614.546 65.5M796.5 28.307C794.714 28.3336 792.879 28.3613 791 28.39M791 28.39C735.921 29.2339 643.421 31 642 31C640 31 638.5 28 635.5 28C632.5 28 593 27 589 28C587.035 28.4913 585.673 29.2238 584.5 29.8421M791 28.39L787.5 40L771 37.5L761.5 45L732.5 44L726 53L708 51L706.5 40L686 37.5C684.833 39 682.5 42.2 682.5 43C682.5 43.8 667.833 45.6667 660.5 46.5L637.5 43L584.5 29.8421M466.5 29.9308L462 30C456.5 30.5 461.5 31.5 456 31.5C454.451 31.5 418.646 31.8568 368 32.3695M466.5 29.9308L459 35L476 38H504L509 31.5L504 29.3538M466.5 29.9308L504 29.3538M504 29.3538L518 29.1385M518 29.1385L527 29C527 29 564.392 30.4521 577 30.8817M518 29.1385L511.5 35L518 39L577 30.8817M577 30.8817C579.188 30.9562 580.63 31 581 31C582.272 31 583.285 30.4824 584.5 29.8421M614.546 65.5C611.577 65.3053 609.465 65.2676 609 65.5C607 66.5 609 69 607 69C606.543 69 605.668 68.9478 604.5 68.8612M555.5 66.865C569.93 67.0453 584.09 67.2727 587.5 67.5C593.286 67.8857 600.559 68.569 604.5 68.8612M555.5 66.865L582 60L601 63L604.5 68.8612M555.5 66.865C551.792 66.8186 548.066 66.7754 544.5 66.7361M454 66.6206C466.522 66.9058 520.5 66.5 520.5 66.5C520.5 66.5 531.424 66.5918 544.5 66.7361M454 66.6206C452.623 66.5892 451.748 66.5495 451.5 66.5C449 66 449.5 64 447 63.5C446.742 63.4485 441.928 63.3651 433.5 63.2569M454 66.6206L458.5 59.5L443.5 57.5L439 51L461 49.5L477.5 60L492 62L502.5 58.5L546.5 61L544.5 66.7361M418.5 63.0797C418.5 63.0797 406.5 55 398 53C389.5 51 373.5 49.5 364 45.5C354.5 41.5 356 32.4911 356 32.4911M418.5 63.0797C424.304 63.1442 429.342 63.2036 433.5 63.2569M418.5 63.0797C389.646 62.7588 341.849 62.3103 289 61.8389M356 32.4911C360.083 32.4497 364.086 32.4092 368 32.3695M356 32.4911C318.989 32.8664 275.43 33.3105 232 33.7545M368 32.3695C368 32.3695 367.5 38.5 375.5 42C383.5 45.5 401.5 47 408 49.5C414.5 52 433.5 63.2569 433.5 63.2569M232 33.7545C232 33.7545 238 38 246 42C254 46 265.5 46 273.5 49.5C281.5 53 289 61.8389 289 61.8389M232 33.7545C229.332 33.7817 226.665 33.809 224 33.8363M289 61.8389C282.73 61.783 276.389 61.7268 270 61.6704M270 61.6704C270 61.6704 265.5 56.5 259 54.5C252.5 52.5 241.5 51 235 47C228.5 43 224 33.8363 224 33.8363M270 61.6704C225.907 61.2812 179.532 60.8851 138.5 60.5397M224 33.8363C175.99 34.3271 128.641 34.8125 91 35.1988M79 35.322C39.2627 35.7299 12.9999 36 12.9999 36C5.26074 37.5295 3.23946 40.3809 2 47.5C2.12294 55.4735 4.52303 58.1074 12.9999 59.5C12.9999 59.5 60.2154 59.883 123.5 60.4137M79 35.322C79 35.322 90.5 44.5 96 48C101.5 51.5 107.5 50.5 112 52.5C116.5 54.5 123.5 60.4137 123.5 60.4137M79 35.322C82.8758 35.2822 86.8797 35.2411 91 35.1988M123.5 60.4137C128.408 60.4548 133.413 60.4969 138.5 60.5397M138.5 60.5397C138.5 60.5397 125 48 116.5 46C108 44 107 46 101.5 43C96 40 94.3333 37.6325 91 35.1988M603.5 49.5L614.546 43L585 35.5L554.5 39L561.5 45.5H587.5L603.5 49.5ZM589 54L555.5 48L529 53L557.5 60L589 54ZM521.5 54L525 51L501.5 46.5L473 48L489.5 54H521.5ZM446 39H462L470.5 42L468 46.5L448 45.5L446 39Z" stroke="black" stroke-width="3"/>
<defs>
<linearGradient id="paint0_linear_16_36" x1="708" y1="2" x2="708" y2="78.5433" gradientUnits="userSpaceOnUse">
<stop offset="0.375" stop-color="#543727"/>
<stop offset="0.635" stop-color="#1B1613"/>
</linearGradient>
</defs>
</svg>
