<svg width="1420" height="103" viewBox="0 0 1420 103" fill="none" xmlns="http://www.w3.org/2000/svg">
<path d="M159 43C155.8 43 125.167 47.6667 110.5 49.5H147H165L241.5 32L296.5 22.5L249 23C220.333 29.6667 162.2 43 159 43Z" />
<path d="M419.5 41.5L348 51.5H383.5L410 48.5L490 35.5L556 20L503 20.5L419.5 41.5Z" />
<path d="M924.5 17H912.5C912.5 17 917.5 27.5 923 36.5C928.5 45.5 943 55.5 943 55.5L955.5 54.5C955.5 54.5 942.5 42.5 937 36.5C931.5 30.5 924.5 17 924.5 17Z" />
<path d="M159 43C155.8 43 125.167 47.6667 110.5 49.5H147H165L241.5 32L296.5 22.5L249 23C220.333 29.6667 162.2 43 159 43Z" stroke="black" stroke-width="3"/>
<path d="M419.5 41.5L348 51.5H383.5L410 48.5L490 35.5L556 20L503 20.5L419.5 41.5Z" stroke="black" stroke-width="3"/>
<path d="M924.5 17H912.5C912.5 17 917.5 27.5 923 36.5C928.5 45.5 943 55.5 943 55.5L955.5 54.5C955.5 54.5 942.5 42.5 937 36.5C931.5 30.5 924.5 17 924.5 17Z" stroke="black" stroke-width="3"/>
<path d="M685.722 20H616.118C683.173 36.8961 719.975 40.3372 803.9 56H870C786.725 42.0259 746.462 35.851 685.722 20Z" />
<path d="M672.202 43.3239C687.225 46.8732 709.258 55.493 709.258 55.493L671.201 54.9859C671.201 54.9859 640.154 47.8873 616.118 46.8732C592.081 45.8592 570.048 53.9718 570.048 53.9718H538C538 53.9718 562.537 41.8028 594.585 37.7465C626.633 33.6901 657.179 39.7746 672.202 43.3239Z" />
<path d="M685.722 20H616.118C683.173 36.8961 719.975 40.3372 803.9 56H870C786.725 42.0259 746.462 35.851 685.722 20Z" stroke="black" stroke-width="3"/>
<path d="M672.202 43.3239C687.225 46.8732 709.258 55.493 709.258 55.493L671.201 54.9859C671.201 54.9859 640.154 47.8873 616.118 46.8732C592.081 45.8592 570.048 53.9718 570.048 53.9718H538C538 53.9718 562.537 41.8028 594.585 37.7465C626.633 33.6901 657.179 39.7746 672.202 43.3239Z" stroke="black" stroke-width="3"/>
<path d="M1411 50.5L1367 44C1367 44 1359 55 1356.5 56C1354 57 1342.5 52.5 1341 56C1339.5 59.5 1351 68.5 1349.5 72.5C1348 76.5 1323 82.5 1321.5 84C1320 85.5 1321.5 93.5 1318.5 95.5C1315.5 97.5 1305.35 94.455 1303 95.5C1300.65 96.545 1299 98 1301 99.5C1303 101 1347.5 100 1347.5 100L1409 70.5L1417.5 58.5L1411 50.5Z" stroke="black" stroke-width="3"/>
</svg>
