<svg width="1420" height="107" viewBox="0 0 1420 107" fill="none" xmlns="http://www.w3.org/2000/svg">
<path d="M947.5 58.5L12.9999 50.5C4.52303 49.1074 2.12294 46.4735 2 38.5C3.23946 31.3809 5.26074 28.5295 12.9999 27C12.9999 27 941.999 18.5 947.5 18.5C953 18.5 1021 2.50001 1026.5 2.00001C1032 1.50001 1324.5 41.5 1329.5 41.5C1334.5 41.5 1337.5 38 1340.5 37.5C1343.5 37 1369 38 1370.5 41.5C1372 45 1359 58 1357.5 58.5C1356 59 1344.5 56.5 1343.5 58.5C1342.5 60.5 1352.5 70.5 1352 74C1351.5 77.5 1326.5 84.5 1324 86C1321.6 87.4406 1323.5 97 1320.5 98.5C1317.5 100 1309.62 95.1536 1303.5 98.5C1301.61 103.798 1299.5 104.739 1295 105C1288.91 99.5911 1284.85 97.5199 1276.5 95.5L1026.5 56C997.983 52.9858 981.094 52.8354 947.5 58.5Z" fill="#1F1F1F" stroke="black" stroke-width="3"/>
</svg>
