<svg width="1422" height="73" viewBox="0 0 1422 73" fill="none" xmlns="http://www.w3.org/2000/svg">
<path d="M24 28V36L458 37.5L475 43L495.5 37.5H596H798V31H596H495.5L483.5 25.5L458 31L24 28Z" fill="#57DACA"/>
<path d="M970 56C975 49.5 974.5 15.5 970 12.5C965.5 9.49997 945.5 2.99998 930 1.99998C914.5 0.999982 870 11 870 11L866 32.5L869.5 53L882.5 62L919 70.5C919 70.5 965 62.5 970 56Z" fill="#57DACA"/>
<path d="M24 28V36L458 37.5L475 43L495.5 37.5H596H798V31H596H495.5L483.5 25.5L458 31L24 28Z" stroke="black" stroke-width="3"/>
<path d="M970 56C975 49.5 974.5 15.5 970 12.5C965.5 9.49997 945.5 2.99998 930 1.99998C914.5 0.999982 870 11 870 11L866 32.5L869.5 53L882.5 62L919 70.5C919 70.5 965 62.5 970 56Z" stroke="black" stroke-width="3"/>
<path d="M1398.5 58.5L1413 53C1413 53 1416 50.5 1417.5 47C1419 43.5 1416.5 37.5 1417.5 35.5C1418.5 33.5 1420.5 32 1420 28.5C1419.5 25 1415 17 1413 17C1411 17 1404 18.5 1403 17C1402 15.5 1406 13 1403 10.5C1400 8 1389 6 1386 6C1383 6 1371.5 7 1371.5 7V9.5L1378 17.5L1378.5 26.5L1373 48.5L1375 61.5L1374.5 63.5L1392 65L1398.5 58.5Z" stroke="black" stroke-width="3"/>
</svg>
