<svg width="1421" height="94" viewBox="0 0 1421 94" fill="none" xmlns="http://www.w3.org/2000/svg">
<path d="M632 46C624 34.5 619.5 29 619.5 29H628C628 29 637 41 640.5 46C644 51 665.5 68.5 665.5 68.5H656.5C656.5 68.5 640 57.5 632 46Z" fill="#717171"/>
<path d="M654 49.5C649.5 44 636 29 636 29H645C645 29 659 45 663 49.5C667 54 686 68.5 686 68.5H674.5C674.5 68.5 658.5 55 654 49.5Z" fill="#717171"/>
<path d="M564.5 53.5L562 56C562 56 568 59.5 572.5 62.5C577 65.5 590 68.5 590 68.5H602C602 68.5 585 63.5 580.5 61.5C576 59.5 564.5 53.5 564.5 53.5Z" fill="#717171"/>
<path d="M613 62.5L616 60L624 64L634 68.5H624L613 62.5Z" fill="#717171"/>
<path d="M758 43.5C753 40 733.5 27 733.5 27H745.5C745.5 27 752 30.5 758 34C764 37.5 777 51 781.5 54C786 57 798 62.5 798 62.5V58.5C798 58.5 788.5 53 785.5 51C782.5 49 773 39.5 770.5 37.5C768 35.5 754.5 27 754.5 27H765C765 27 768.5 28 772.5 31C776.5 34 781.5 38 785.5 41C789.5 44 798 49.5 798 49.5V24.5L817.5 22V24C817.5 24 834 26 841.5 24.5C849 23 859.5 15.5 865.5 14C871.5 12.5 881 13 881 13L875 19.5142C875 19.5142 871.5 19 867 20.5C862.5 22 854.5 32 842.5 34C830.5 36 817.5 37 817.5 37V53C817.5 53 820.5 54.5 839 51C857.5 47.5 877.7 4.99998 903.5 1.99998C929.3 -1.00002 945 18 945 18L935 16.5C935 16.5 921.5 12 907 16.5C892.5 21 881 62.5 858.5 68C858.5 68 869 72.9249 880.5 71.4249C892 69.9249 923 31.5 936.5 27C950 22.5 958 23 958 23V19.5L963 15L992 19.5V78L963 82L958 78V73.5C958 73.5 953 65 942 69.5C931 74 920.5 93 908 92.5C895.5 92 887.5 85 887.5 85C887.5 85 893.5 82.5 895.5 81C897.5 79.5 900.5 76 900.5 76C900.5 76 907 83 914.5 81C922 79 928 70 936.5 62.5C945 55 958 51 958 51V31.5C951.77 30.8572 937.5 36.5 926.5 46C915.5 55.5 899.5 78.7869 893 82C886.5 85.2131 875.5 85 869 84.5C862.5 84 834.5 71.4249 834.5 71.4249C824.226 71.9089 817.5 71 817.5 71V75L798 72.5V71C798 71 787 66 781.5 62.5C776 59 763 47 758 43.5Z" fill="#717171"/>
<path d="M1142 17.5L1135.5 20.5C1140.36 43.3066 1140.05 55.8738 1135.5 78L1142 81.5L1155.5 83C1155.5 83 1160 66 1160 49C1160 32 1155.5 16 1155.5 16L1142 17.5Z" fill="#717171"/>
<path d="M817.5 53V22L798 24.5V72.5L817.5 75V71M817.5 53C817.5 53 820.5 54.5 839 51C857.5 47.5 877.7 4.99998 903.5 1.99998C929.3 -1.00002 945 18 945 18L935 16.5C935 16.5 921.5 12 907 16.5C892.5 21 881 62.5 858.5 68M817.5 53V71M858.5 68C849.567 70.1836 841.265 71.1062 834.5 71.4249M858.5 68C858.5 68 869 72.9249 880.5 71.4249C892 69.9249 923 31.5 936.5 27C950 22.5 958 23 958 23M817.5 71C817.5 71 824.226 71.9089 834.5 71.4249M834.5 71.4249C834.5 71.4249 862.5 84 869 84.5C875.5 85 886.5 85.2131 893 82C899.5 78.7869 915.5 55.5 926.5 46C937.5 36.5 951.77 30.8572 958 31.5M958 31.5V23M958 31.5V51M958 23V19.5L963 15L992 19.5V78L963 82L958 78V73.5M958 73.5C958 73.5 953 65 942 69.5C931 74 920.5 93 908 92.5C895.5 92 887.5 85 887.5 85C887.5 85 893.5 82.5 895.5 81C897.5 79.5 900.5 76 900.5 76C900.5 76 907 83 914.5 81C922 79 928 70 936.5 62.5C945 55 958 51 958 51M958 73.5V51M619.5 29C619.5 29 624 34.5 632 46C640 57.5 656.5 68.5 656.5 68.5H665.5C665.5 68.5 644 51 640.5 46C637 41 628 29 628 29H619.5ZM636 29C636 29 649.5 44 654 49.5C658.5 55 674.5 68.5 674.5 68.5H686C686 68.5 667 54 663 49.5C659 45 645 29 645 29H636ZM562 56L564.5 53.5C564.5 53.5 576 59.5 580.5 61.5C585 63.5 602 68.5 602 68.5H590C590 68.5 577 65.5 572.5 62.5C568 59.5 562 56 562 56ZM616 60L613 62.5L624 68.5H634L624 64L616 60ZM733.5 27C733.5 27 753 40 758 43.5C763 47 776 59 781.5 62.5C787 66 798 71 798 71V62.5C798 62.5 786 57 781.5 54C777 51 764 37.5 758 34C752 30.5 745.5 27 745.5 27H733.5ZM754.5 27C754.5 27 768 35.5 770.5 37.5C773 39.5 782.5 49 785.5 51C788.5 53 798 58.5 798 58.5V49.5C798 49.5 789.5 44 785.5 41C781.5 38 776.5 34 772.5 31C768.5 28 765 27 765 27H754.5ZM1135.5 20.5L1142 17.5L1155.5 16C1155.5 16 1160 32 1160 49C1160 66 1155.5 83 1155.5 83L1142 81.5L1135.5 78C1140.05 55.8738 1140.36 43.3066 1135.5 20.5ZM817.5 37C817.5 37 830.5 36 842.5 34C854.5 32 862.5 22 867 20.5C871.5 19 875 19.5142 875 19.5142L881 13C881 13 871.5 12.5 865.5 14C859.5 15.5 849 23 841.5 24.5C834 26 817.5 24 817.5 24V37Z" stroke="black" stroke-width="3"/>
</svg>
