<svg width="1423" height="68" viewBox="0 0 1423 68" fill="none" xmlns="http://www.w3.org/2000/svg">
<path d="M453 18.5C458.5 18.5 498 19 503.5 18.5H530L534 15.5H621.5L797.5 12L871.5 9.5L868 31.5L871.5 53L623 50L534 48.5L530 45L503.5 45.5H453L12.9999 41.5C4.52303 40.1074 2.12294 37.4735 2 29.5C3.23946 22.3809 5.26074 19.5295 12.9999 18C12.9999 18 447.5 18.5 453 18.5Z" fill="#43302D"/>
<path d="M993.5 62V4L1297 4.5L1299 7.5H1303.5L1301.5 4.5H1346.5L1349 1.5H1373.5V7.5L1380.5 16.5V25.5L1375 47.5L1377 60L1375 66H1349L1346.5 62H1301.5L1303.5 58H1299L1297 62H993.5Z" fill="#43302D"/>
<path d="M453 18.5C458.5 18.5 498 19 503.5 18.5H530L534 15.5H621.5L797.5 12L871.5 9.5L868 31.5L871.5 53L623 50L534 48.5L530 45L503.5 45.5H453L12.9999 41.5C4.52303 40.1074 2.12294 37.4735 2 29.5C3.23946 22.3809 5.26074 19.5295 12.9999 18C12.9999 18 447.5 18.5 453 18.5Z" stroke="black" stroke-width="3"/>
<path d="M993.5 62V4L1297 4.5L1299 7.5H1303.5L1301.5 4.5H1346.5L1349 1.5H1373.5V7.5L1380.5 16.5V25.5L1375 47.5L1377 60L1375 66H1349L1346.5 62H1301.5L1303.5 58H1299L1297 62H993.5Z" stroke="black" stroke-width="3"/>
</svg>
