<svg width="1423" height="92" viewBox="0 0 1423 92" fill="none" xmlns="http://www.w3.org/2000/svg">
<path d="M453 33.5C458.5 33.5 498 34 503.5 33.5H530L534 30.5H621.5L797.5 27L871.5 24.5L868 46.5L871.5 68L623 65L534 63.5L530 60L503.5 60.5H453L12.9999 56.5C4.52303 55.1074 2.12294 52.4735 2 44.5C3.23946 37.3809 5.26074 34.5295 12.9999 33C12.9999 33 447.5 33.5 453 33.5Z" fill="#43302D"/>
<path d="M993.5 77V19L1297 19.5L1299 22.5H1303.5L1301.5 19.5H1346.5L1349 16.5H1373.5V22.5L1380.5 31.5V40.5L1375 62.5L1377 75L1375 81H1349L1346.5 77H1301.5L1303.5 73H1299L1297 77H993.5Z" fill="#43302D"/>
<path d="M453 33.5C458.5 33.5 498 34 503.5 33.5H530L534 30.5H621.5L797.5 27L871.5 24.5L868 46.5L871.5 68L623 65L534 63.5L530 60L503.5 60.5H453L12.9999 56.5C4.52303 55.1074 2.12294 52.4735 2 44.5C3.23946 37.3809 5.26074 34.5295 12.9999 33C12.9999 33 447.5 33.5 453 33.5Z" stroke="black" stroke-width="3"/>
<path d="M993.5 77V19L1297 19.5L1299 22.5H1303.5L1301.5 19.5H1346.5L1349 16.5H1373.5V22.5L1380.5 31.5V40.5L1375 62.5L1377 75L1375 81H1349L1346.5 77H1301.5L1303.5 73H1299L1297 77H993.5Z" stroke="black" stroke-width="3"/>
</svg>
