<svg width="1422" height="107" viewBox="0 0 1422 107" fill="none" xmlns="http://www.w3.org/2000/svg">
<path d="M1327.5 91.5C1327.5 91.5 1338.5 106 1368.5 104.5C1398.5 103 1420.5 83 1419.5 52.5C1418.5 22 1393.5 0.499985 1362.5 2.49998C1331.5 4.49998 1328.5 18 1328.5 18C1328.5 18 1333 29 1335 37.5C1337 46 1337 55.5 1336 65C1335 74.5 1327.5 91.5 1327.5 91.5Z" stroke="black" stroke-width="3"/>
<path d="M844 50.5C849 49 868.5 32.5 868.5 32.5L861.5 31.5C861.5 31.5 846.5 43.5 839.5 45.5C832.5 47.5 825 46.5 816 48C807 49.5 799.5 57.5 795 58.5C790.5 59.5 780 58 775 58.5C770 59 755.5 58.5 746.5 64C737.5 69.5 737 73.5 737 73.5L742 74C742 74 754 65 767 64C780 63 790 65 795 64C800 63 809 54.5 817 54C825 53.5 839 52 844 50.5Z"/>
<path d="M711 48C714.5 45 721.5 37.5 721.5 37.5L715 36.5C715 36.5 710 42 705.5 45C701 48 697 51 692 53C687 55 677.5 55.5 669.5 58.5C661.5 61.5 648 72 648 72L654 72.5C654 72.5 669.5 63 676 61C682.5 59 688 60 693.5 58C699 56 707.5 51 711 48Z"/>
<path d="M583 61C592 59 615 41.5 615 41.5L610 41C610 41 587 54 578.5 56C570 58 555.5 54 547 56C538.5 58 508 72 508 72L514.5 73.5C514.5 73.5 542.5 62.5 549.5 61C556.5 59.5 574 63 583 61Z"/>
<path d="M434.5 63C424 65.5 419 73 419 73H412C412 73 422 61 433.5 58C445 55 457 61.5 467 58C477 54.5 505 39 505 39L511.5 40C511.5 40 479.5 59 467 63C454.5 67 445 60.5 434.5 63Z"/>
<path d="M945 50.5C952.5 48 976.5 31 976.5 31L971.5 28.5C971.5 28.5 951 41.5 943.5 45.5C936 49.5 930.5 45.5 924 48C917.5 50.5 909.5 56.5 901.5 59.5C893.5 62.5 887 62.5 879.5 64.5C872 66.5 868.5 75 868.5 75L872 76C872 76 874 71 883.5 69C893 67 891.5 68.5 901.5 65.5C911.5 62.5 921 55.5 926 53.5C931 51.5 937.5 53 945 50.5Z"/>
<path d="M388 47.5C391.5 47.5 401 43 401 43L391.5 42C391.5 42 379.5 43 371.5 45C363.5 47 357.5 55.5 348.5 57C339.5 58.5 332.5 58.5 326.5 61.5C320.5 64.5 317 73 317 73H324C324 73 323.5 66.5 331.5 64C339.5 61.5 342.5 64 352.5 61.5C362.5 59 370 49.5 377 48.5C384 47.5 384.5 47.5 388 47.5Z"/>
<path d="M257.5 64C267 64 302.5 41.5 302.5 41.5L286.5 42C286.5 42 267 56 255 56C243 56 227.5 50.5 218 50C208.5 49.5 182 59 173.5 59.5C165 60 139.5 54 127 54C114.5 54 104 63 95.5 64C87 65 79 58 67 57C55 56 49 63 43.5 64C38 65 28 64 28 64C28 64 35 69 41.5 68.5C48 68 58 63.5 66 64C74 64.5 85.5 69 95.5 68.5C105.5 68 114 60.5 127.5 60.5C141 60.5 167 64.5 174.5 64C182 63.5 207.5 55.5 219 56C230.5 56.5 248 64 257.5 64Z"/>
<path d="M844 50.5C849 49 868.5 32.5 868.5 32.5L861.5 31.5C861.5 31.5 846.5 43.5 839.5 45.5C832.5 47.5 825 46.5 816 48C807 49.5 799.5 57.5 795 58.5C790.5 59.5 780 58 775 58.5C770 59 755.5 58.5 746.5 64C737.5 69.5 737 73.5 737 73.5L742 74C742 74 754 65 767 64C780 63 790 65 795 64C800 63 809 54.5 817 54C825 53.5 839 52 844 50.5Z" stroke="black" stroke-width="3"/>
<path d="M711 48C714.5 45 721.5 37.5 721.5 37.5L715 36.5C715 36.5 710 42 705.5 45C701 48 697 51 692 53C687 55 677.5 55.5 669.5 58.5C661.5 61.5 648 72 648 72L654 72.5C654 72.5 669.5 63 676 61C682.5 59 688 60 693.5 58C699 56 707.5 51 711 48Z" stroke="black" stroke-width="3"/>
<path d="M583 61C592 59 615 41.5 615 41.5L610 41C610 41 587 54 578.5 56C570 58 555.5 54 547 56C538.5 58 508 72 508 72L514.5 73.5C514.5 73.5 542.5 62.5 549.5 61C556.5 59.5 574 63 583 61Z" stroke="black" stroke-width="3"/>
<path d="M434.5 63C424 65.5 419 73 419 73H412C412 73 422 61 433.5 58C445 55 457 61.5 467 58C477 54.5 505 39 505 39L511.5 40C511.5 40 479.5 59 467 63C454.5 67 445 60.5 434.5 63Z" stroke="black" stroke-width="3"/>
<path d="M945 50.5C952.5 48 976.5 31 976.5 31L971.5 28.5C971.5 28.5 951 41.5 943.5 45.5C936 49.5 930.5 45.5 924 48C917.5 50.5 909.5 56.5 901.5 59.5C893.5 62.5 887 62.5 879.5 64.5C872 66.5 868.5 75 868.5 75L872 76C872 76 874 71 883.5 69C893 67 891.5 68.5 901.5 65.5C911.5 62.5 921 55.5 926 53.5C931 51.5 937.5 53 945 50.5Z" stroke="black" stroke-width="3"/>
<path d="M388 47.5C391.5 47.5 401 43 401 43L391.5 42C391.5 42 379.5 43 371.5 45C363.5 47 357.5 55.5 348.5 57C339.5 58.5 332.5 58.5 326.5 61.5C320.5 64.5 317 73 317 73H324C324 73 323.5 66.5 331.5 64C339.5 61.5 342.5 64 352.5 61.5C362.5 59 370 49.5 377 48.5C384 47.5 384.5 47.5 388 47.5Z" stroke="black" stroke-width="3"/>
<path d="M257.5 64C267 64 302.5 41.5 302.5 41.5L286.5 42C286.5 42 267 56 255 56C243 56 227.5 50.5 218 50C208.5 49.5 182 59 173.5 59.5C165 60 139.5 54 127 54C114.5 54 104 63 95.5 64C87 65 79 58 67 57C55 56 49 63 43.5 64C38 65 28 64 28 64C28 64 35 69 41.5 68.5C48 68 58 63.5 66 64C74 64.5 85.5 69 95.5 68.5C105.5 68 114 60.5 127.5 60.5C141 60.5 167 64.5 174.5 64C182 63.5 207.5 55.5 219 56C230.5 56.5 248 64 257.5 64Z" stroke="black" stroke-width="3"/>
</svg>
