<svg width="1422" height="103" viewBox="0 0 1422 103" fill="none" xmlns="http://www.w3.org/2000/svg">
<path d="M12.9999 68.5C4.52303 67.1074 2.12294 64.4735 2 56.5C3.23946 49.3809 5.26074 46.5295 12.9999 45C12.9999 45 373.5 38.1734 379.5 38.1734C385.5 38.1734 402 40.5 408 40.5C414 40.5 444.5 35.9662 451 35.9662C457.5 35.9662 469.5 38.3469 474 38.1734C478.5 38 491 35.9325 498 35.9662C505 36 513.5 37.5 516.5 37.5C519.5 37.5 523.5 35.3149 528 35.4074C532.5 35.5 540.5 37.5 545 37.5C549.5 37.5 576.5 33 583.5 33C590.5 33 614 39 617.5 39C621 39 623.5 35.6187 629.5 35.5C635.5 35.3813 636.5 38 648.5 37.5C660.5 37 682.5 29.9214 692.5 30.2107C702.5 30.5 713.5 34 722 34.5C730.5 35 737.5 31.6938 746 31.3469C754.5 31 768.5 34 775 33.5C781.5 33 796 28.9214 807 30.2107C818 31.5 826 34.5 833.5 34.5C841 34.5 851.5 28.8353 863 29.1676C874.5 29.5 884.5 33 892.5 32.5C900.5 32 909 28.1711 916.5 28.1711C924 28.1711 938.5 28.8422 945 28.1711C951.5 27.5 962 24.5 966 24.5C970 24.5 977 28.1711 980 28.1711C983 28.1711 991 24.5 998 24.5C1005 24.5 1035.5 28.1711 1045 28.1711C1054.5 28.1711 1073 21 1088.5 21C1104 21 1126 28.1711 1145 28.1711C1164 28.1711 1301.5 21 1301.5 21C1304.55 17.6684 1307.54 17.0357 1313.5 16.5L1317 21V14C1321.69 11.8707 1324.31 12.0089 1329 14C1341.62 41.6315 1342.2 58.2774 1329 90.5C1323.48 90.8664 1320.68 90.6044 1317 88V82L1313.5 86C1307.17 84.9029 1305.04 83.3818 1301.5 80.5C1301.5 80.5 1216 76.3906 1195 77C1174 77.6094 1111 87.5 1083.5 80.5C1056 73.5 942.5 79 933.5 77C924.5 75 922.334 71.5 914.5 71.5C904.935 71.5 899.5 76.5206 890.5 77C881.5 77.4794 875.067 74.0664 864.5 74C854.642 73.9381 847 77 838 76.5206C829 76.0412 815.165 69.0363 799 69C782.793 68.9636 765.5 76.5206 757.5 75.7501C749.5 74.9795 748.644 72.1433 737.5 72C733.8 71.9524 729.622 74.0549 725 74C718.512 73.9229 711.147 69.0902 703 69C693.928 68.8996 684.386 74.8183 673.5 74.7037C666.504 74.6301 656.159 70.0787 648.5 70C642.206 69.9353 638.7 72.0678 632 72C627.261 71.952 622.426 69.0494 617.5 69C608.456 68.9093 599.109 73.9465 589.5 73.8516C579.597 73.7538 568.415 70.1015 558 70C547.873 69.9013 538.526 73.3535 528 73.252C520.584 73.1804 512.079 70.0726 504.5 70C497.395 69.9319 483.724 75.0688 476.5 75C461.853 74.8604 451 69 440 71C429 73 12.9999 68.5 12.9999 68.5Z" fill="#533A2C"/>
<path d="M12.9999 68.5C4.52303 67.1074 2.12294 64.4735 2 56.5C3.23946 49.3809 5.26074 46.5295 12.9999 45C12.9999 45 373.5 38.1734 379.5 38.1734C385.5 38.1734 402 40.5 408 40.5C414 40.5 444.5 35.9662 451 35.9662C457.5 35.9662 469.5 38.3469 474 38.1734C478.5 38 491 35.9325 498 35.9662C505 36 513.5 37.5 516.5 37.5C519.5 37.5 523.5 35.3149 528 35.4074C532.5 35.5 540.5 37.5 545 37.5C549.5 37.5 576.5 33 583.5 33C590.5 33 614 39 617.5 39C621 39 623.5 35.6187 629.5 35.5C635.5 35.3813 636.5 38 648.5 37.5C660.5 37 682.5 29.9214 692.5 30.2107C702.5 30.5 713.5 34 722 34.5C730.5 35 737.5 31.6938 746 31.3469C754.5 31 768.5 34 775 33.5C781.5 33 796 28.9214 807 30.2107C818 31.5 826 34.5 833.5 34.5C841 34.5 851.5 28.8353 863 29.1676C874.5 29.5 884.5 33 892.5 32.5C900.5 32 909 28.1711 916.5 28.1711C924 28.1711 938.5 28.8422 945 28.1711C951.5 27.5 962 24.5 966 24.5C970 24.5 977 28.1711 980 28.1711C983 28.1711 991 24.5 998 24.5C1005 24.5 1035.5 28.1711 1045 28.1711C1054.5 28.1711 1073 21 1088.5 21C1104 21 1126 28.1711 1145 28.1711C1164 28.1711 1301.5 21 1301.5 21C1304.55 17.6684 1307.54 17.0357 1313.5 16.5L1317 21V14C1321.69 11.8707 1324.31 12.0089 1329 14C1341.62 41.6315 1342.2 58.2774 1329 90.5C1323.48 90.8664 1320.68 90.6044 1317 88V82L1313.5 86C1307.17 84.9029 1305.04 83.3818 1301.5 80.5C1301.5 80.5 1216 76.3906 1195 77C1174 77.6094 1111 87.5 1083.5 80.5C1056 73.5 942.5 79 933.5 77C924.5 75 922.334 71.5 914.5 71.5C904.935 71.5 899.5 76.5206 890.5 77C881.5 77.4794 875.067 74.0664 864.5 74C854.642 73.9381 847 77 838 76.5206C829 76.0412 815.165 69.0363 799 69C782.793 68.9636 765.5 76.5206 757.5 75.7501C749.5 74.9795 748.644 72.1433 737.5 72C733.8 71.9524 729.622 74.0549 725 74C718.512 73.9229 711.147 69.0902 703 69C693.928 68.8996 684.386 74.8183 673.5 74.7037C666.504 74.6301 656.159 70.0787 648.5 70C642.206 69.9353 638.7 72.0678 632 72C627.261 71.952 622.426 69.0494 617.5 69C608.456 68.9093 599.109 73.9465 589.5 73.8516C579.597 73.7538 568.415 70.1015 558 70C547.873 69.9013 538.526 73.3535 528 73.252C520.584 73.1804 512.079 70.0726 504.5 70C497.395 69.9319 483.724 75.0688 476.5 75C461.853 74.8604 451 69 440 71C429 73 12.9999 68.5 12.9999 68.5Z" fill="url(#paint0_linear_15_3)"/>
<path d="M12.9999 68.5C4.52303 67.1074 2.12294 64.4735 2 56.5C3.23946 49.3809 5.26074 46.5295 12.9999 45C12.9999 45 373.5 38.1734 379.5 38.1734C385.5 38.1734 402 40.5 408 40.5C414 40.5 444.5 35.9662 451 35.9662C457.5 35.9662 469.5 38.3469 474 38.1734C478.5 38 491 35.9325 498 35.9662C505 36 513.5 37.5 516.5 37.5C519.5 37.5 523.5 35.3149 528 35.4074C532.5 35.5 540.5 37.5 545 37.5C549.5 37.5 576.5 33 583.5 33C590.5 33 614 39 617.5 39C621 39 623.5 35.6187 629.5 35.5C635.5 35.3813 636.5 38 648.5 37.5C660.5 37 682.5 29.9214 692.5 30.2107C702.5 30.5 713.5 34 722 34.5C730.5 35 737.5 31.6938 746 31.3469C754.5 31 768.5 34 775 33.5C781.5 33 796 28.9214 807 30.2107C818 31.5 826 34.5 833.5 34.5C841 34.5 851.5 28.8353 863 29.1676C874.5 29.5 884.5 33 892.5 32.5C900.5 32 909 28.1711 916.5 28.1711C924 28.1711 938.5 28.8422 945 28.1711C951.5 27.5 962 24.5 966 24.5C970 24.5 977 28.1711 980 28.1711C983 28.1711 991 24.5 998 24.5C1005 24.5 1035.5 28.1711 1045 28.1711C1054.5 28.1711 1073 21 1088.5 21C1104 21 1126 28.1711 1145 28.1711C1164 28.1711 1301.5 21 1301.5 21C1304.55 17.6684 1307.54 17.0357 1313.5 16.5L1317 21V14C1321.69 11.8707 1324.31 12.0089 1329 14C1341.62 41.6315 1342.2 58.2774 1329 90.5C1323.48 90.8664 1320.68 90.6044 1317 88V82L1313.5 86C1307.17 84.9029 1305.04 83.3818 1301.5 80.5C1301.5 80.5 1216 76.3906 1195 77C1174 77.6094 1111 87.5 1083.5 80.5C1056 73.5 942.5 79 933.5 77C924.5 75 922.334 71.5 914.5 71.5C904.935 71.5 899.5 76.5206 890.5 77C881.5 77.4794 875.067 74.0664 864.5 74C854.642 73.9381 847 77 838 76.5206C829 76.0412 815.165 69.0363 799 69C782.793 68.9636 765.5 76.5206 757.5 75.7501C749.5 74.9795 748.644 72.1433 737.5 72C733.8 71.9524 729.622 74.0549 725 74C718.512 73.9229 711.147 69.0902 703 69C693.928 68.8996 684.386 74.8183 673.5 74.7037C666.504 74.6301 656.159 70.0787 648.5 70C642.206 69.9353 638.7 72.0678 632 72C627.261 71.952 622.426 69.0494 617.5 69C608.456 68.9093 599.109 73.9465 589.5 73.8516C579.597 73.7538 568.415 70.1015 558 70C547.873 69.9013 538.526 73.3535 528 73.252C520.584 73.1804 512.079 70.0726 504.5 70C497.395 69.9319 483.724 75.0688 476.5 75C461.853 74.8604 451 69 440 71C429 73 12.9999 68.5 12.9999 68.5Z" stroke="black" stroke-width="3"/>
<path d="M1329 90.5C1323.48 90.8664 1317.18 88.6044 1313.5 86C1307.17 84.9029 1305.04 83.3818 1301.5 80.5C1307.94 56.341 1308.29 43.2637 1301.5 21C1304.55 17.6684 1307.54 17.0357 1313.5 16.5C1318.19 14.3707 1324.31 12.0089 1329 14C1341.62 41.6315 1342.2 58.2774 1329 90.5Z" fill="#C2C2C2"/>
<path d="M1313.5 86C1317.18 88.6044 1323.48 90.8664 1329 90.5C1342.2 58.2774 1341.62 41.6315 1329 14C1324.31 12.0089 1318.19 14.3707 1313.5 16.5M1313.5 86C1307.17 84.9029 1305.04 83.3818 1301.5 80.5C1307.94 56.341 1308.29 43.2637 1301.5 21C1304.55 17.6684 1307.54 17.0357 1313.5 16.5M1313.5 86C1324.68 57.7505 1325.43 42.4593 1313.5 16.5" stroke="black" stroke-width="3"/>
<path d="M1046 28C1047.5 36.5 1055 43.5 1060 50.5M1060 50.5C1060 50.5 1055.5 54 1055 60.5C1054.5 67 1057.5 72.5 1057.5 77.5M1060 50.5C1068.5 42 1075.5 30 1074 23.5M1092.5 21.5C1092.5 21.5 1084 50.5 1086 58C1088 65.5 1085 80 1085 80M1099.5 82.5C1099.5 82.5 1098 58 1099.5 53.5C1101 49 1103.5 48.5 1105 44.5C1106.5 40.5 1105 22.5 1105 22.5M1120.5 82.5C1122.48 74.6827 1121.74 67.1707 1118.5 50.5M1141 81.5L1139.27 71M1130.5 28C1129 35 1134.5 34 1134.5 38C1134.5 42 1131.5 46.5 1133 53.5C1134.5 60.5 1139.27 71 1139.27 71M1139.27 71C1139.27 71 1145.5 62.5 1147.5 60.5C1149.5 58.5 1146 56.5 1145.5 53.5C1145 50.5 1151.5 50.5 1151.5 50.5M1151.5 50.5C1151.5 50.5 1142.5 42 1143.5 40.5C1144.5 39 1150 35 1150 35M1151.5 50.5C1156 48.5 1157 44.5 1156 42C1155 39.5 1151.5 38 1150 35M1150 35V28" stroke="black" stroke-width="5"/>
<path d="M1166 79.5C1166 74.5 1158.5 65.5 1161 61C1163.5 56.5 1171 49 1171 46C1171 43 1168 39.5 1166 36C1164 32.5 1166 31.5 1166 27.5M1181 38.5C1181 42.5 1185 43.5 1185.5 46C1186 48.5 1180 64 1182 66.5C1184 69 1189 69 1189 71C1189 73 1181 74.5 1182 78M1220 77V64.5M1220 64.5C1220 64.5 1200 50.5 1199 46.5C1198 42.5 1199.5 40.5 1198.5 37C1197.5 33.5 1190.5 31 1190 26.5M1220 64.5C1220 64.5 1228 56.5 1227.5 51M1227.5 51C1227.5 51 1218.5 42 1218 39.5C1217.5 37 1219.5 35 1218 32.5C1216.5 30 1212 29 1211.5 25.5M1227.5 51C1227.5 51 1228.5 41 1229.5 38.5C1230.5 36 1234 35.5 1234 32.5C1234 29.5 1230.5 29.5 1230.5 25M1244.5 77.5C1244.5 74.5 1249.5 73.5 1248 73C1246.5 72.5 1242.5 69.5 1242.5 67C1242.5 64.5 1246 65 1246 62C1246 59 1243 56 1242.5 52.5C1242 49 1253.5 32.5 1252.5 24M1268.5 78.5C1268.5 73.5 1264.5 74 1263.5 71C1262.5 68 1267.5 56 1268.5 54C1269.5 52 1271.5 54 1272.5 51.5C1273.5 49 1268.5 43 1268.5 41C1268.5 39 1273 31 1270 27.5M1290.5 79C1291 75.5 1285.5 65.5 1285.5 62C1285.5 58.5 1293 52.5 1293 52.5M1293 52.5C1293 52.5 1282 41 1282.5 38.5C1283 36 1285.5 35 1285.5 32.5C1285.5 30 1276 25.5 1276 22.5M1293 52.5C1294.5 49 1292 34 1293 32.5C1294 31 1297 32.5 1298 30.5C1299 28.5 1291 25 1291.5 21.5" stroke="black" stroke-width="5"/>
<defs>
<linearGradient id="paint0_linear_15_3" x1="2" y1="51.5434" x2="1338.68" y2="51.5434" gradientUnits="userSpaceOnUse">
<stop stop-color="white" stop-opacity="0"/>
<stop offset="0.602473" stop-color="#CECECE" stop-opacity="0"/>
<stop offset="1" stop-color="#9D9D9D"/>
</linearGradient>
</defs>
</svg>
